<?xml version="1.0" encoding="UTF-8"?>
<svg id="Ebene_2" data-name="Ebene 2" xmlns="http://www.w3.org/2000/svg" viewBox="0 0 462.28 126.28">
  <defs>
    <style>
      .cls-1 {
        fill: #3dc0f0;
      }

      .cls-2 {
        fill: #2e2d2c;
      }
    </style>
  </defs>
  <g id="Ebene_1-2" data-name="Ebene 1">
    <g>
      <path class="cls-2" d="M224.31,23.55h-6.42l-.94,5.13h-5.44L217.43.4h7.74l5.94,28.27h-5.85l-.94-5.13ZM223.41,18.7l-2.33-12.64-2.29,12.64h4.63Z"/>
      <path class="cls-2" d="M250.7,14.54v7.67c0,4.52-2,6.87-5.73,6.87-2.82,0-4.83-1.45-5.57-4l-.94,3.6h-4.01V.4h5.53v9.9c.98-1.7,2.7-2.63,4.99-2.63,3.72,0,5.73,2.34,5.73,6.87ZM245.18,15.43c0-2.18-.66-3.07-2.42-3.07s-2.78,1.13-2.78,3.64v4.77c0,2.5.94,3.64,2.78,3.64s2.42-.89,2.42-3.07v-5.9Z"/>
      <path class="cls-2" d="M263.19,0C264.33,0,265.27.16,266.21.52v4.61c-.69-.2-1.35-.28-1.88-.28-1.55,0-2.13.65-2.13,2.26v.97h4.01v4.44h-4.01v16.15h-5.53V12.52h-2.99v-4.44h2.99v-1.7C256.68,2.1,258.81,0,263.19,0ZM274.81.4v28.27h-5.53V.4h5.53Z"/>
      <path class="cls-2" d="M295.43,8.08v20.6h-4.79l-.12-3.64c-.74,2.58-2.7,4.04-5.53,4.04-3.72,0-5.69-2.34-5.69-6.87v-14.14h5.53v13.25c0,2.18.61,3.07,2.37,3.07s2.7-1.13,2.7-3.64v-12.68h5.53Z"/>
      <path class="cls-2" d="M299.19,22.58v-.6h5.28v.65c0,1.37.86,2.18,2.46,2.18,1.35,0,2.37-.6,2.37-2.02s-1.64-1.82-3.89-2.3c-2.95-.65-5.94-1.98-5.94-6.34,0-3.92,2.54-6.46,7.45-6.46,4.5,0,7.41,2.38,7.41,6.1v.49h-5.2v-.49c0-1.13-.66-1.82-2.17-1.82-1.11,0-2.13.52-2.13,1.82,0,1.5,1.51,1.9,4.05,2.5,2.95.73,5.89,1.86,5.89,6.02s-2.58,6.79-7.61,6.79-7.98-2.5-7.98-6.5Z"/>
      <path class="cls-2" d="M317.49,22.58v-.6h5.28v.65c0,1.37.86,2.18,2.46,2.18,1.35,0,2.37-.6,2.37-2.02s-1.64-1.82-3.89-2.3c-2.95-.65-5.94-1.98-5.94-6.34,0-3.92,2.54-6.46,7.45-6.46,4.5,0,7.41,2.38,7.41,6.1v.49h-5.2v-.49c0-1.13-.66-1.82-2.17-1.82-1.11,0-2.13.52-2.13,1.82,0,1.5,1.51,1.9,4.05,2.5,2.95.73,5.89,1.86,5.89,6.02s-2.58,6.79-7.61,6.79-7.98-2.5-7.98-6.5Z"/>
      <path class="cls-2" d="M335.86,14.26h11.46v4.6h-11.46v-4.6Z"/>
      <path class="cls-2" d="M375.47,16.68v5.65c0,3.07.25,4.85.74,6.34h-5.12c-.25-.12-.45-1.29-.53-2.67-1.11,1.94-3.23,3.07-5.89,3.07-3.89,0-6.39-1.98-6.39-6.87v-1.49c0-3.19,1.15-5.57,4.22-6.58v-.12c-3.11-.97-4.09-3.39-4.09-5.66v-.77C358.41,2.83,361.36,0,366.96,0s8.51,2.83,8.51,8.04v.32h-5.32v-.93c0-1.82-.94-2.75-2.99-2.75s-3.11.97-3.11,2.99v.93c0,1.98.94,3.35,3.81,3.35h9.21v4.73h-1.6ZM369.95,16.68h-2.25c-2.7,0-3.89,1.09-3.89,3.6v1.29c0,1.82,1.02,2.83,2.83,2.83s3.31-.73,3.31-3.19v-4.52Z"/>
      <path class="cls-2" d="M212.93,48.86h8.47c5.73,0,8.47,2.3,8.47,7.19v1.09c0,2.99-1.19,4.85-3.72,5.82v.12c2.62.69,3.77,2.79,3.77,6.83v3.31c0,1.57.08,2.71.65,3.92h-5.85c-.33-.77-.49-1.17-.49-3.96v-3.68c0-2.71-.94-3.68-3.6-3.68h-1.97v11.31h-5.73v-28.27ZM220.75,60.9c2.37,0,3.4-.97,3.4-3.15v-1.09c0-1.98-.86-2.87-2.78-2.87h-2.7v7.11h2.09Z"/>
      <path class="cls-2" d="M233.92,69.95v-6.22c0-4.89,2.91-7.59,8.1-7.59s8.11,2.71,8.11,7.59v6.22c0,4.89-2.91,7.59-8.11,7.59s-8.1-2.71-8.1-7.59ZM244.61,70.35v-7.03c0-1.57-.9-2.5-2.58-2.5s-2.58.93-2.58,2.5v7.03c0,1.57.9,2.5,2.58,2.5s2.58-.93,2.58-2.5Z"/>
      <path class="cls-2" d="M270.39,63v14.14h-5.53v-13.25c0-2.18-.61-3.07-2.37-3.07s-2.7,1.13-2.7,3.64v12.68h-5.53v-28.27h5.53v9.86c.98-1.66,2.66-2.58,4.91-2.58,3.72,0,5.69,2.34,5.69,6.87Z"/>
      <path class="cls-2" d="M286.47,56.38v5.25c-.41-.08-.94-.08-1.39-.08-3.07,0-4.66,1.74-4.66,5.01v10.58h-5.53v-20.6h4.79l.16,4.2c.66-3.07,2.37-4.6,5.08-4.6.74,0,1.19.08,1.55.24Z"/>
      <path class="cls-2" d="M301.45,56.38v5.25c-.41-.08-.94-.08-1.39-.08-3.07,0-4.66,1.74-4.66,5.01v10.58h-5.53v-20.6h4.79l.16,4.2c.66-3.07,2.37-4.6,5.08-4.6.74,0,1.19.08,1.55.24Z"/>
      <path class="cls-2" d="M320.48,63.73v4.44h-10.81v2.38c0,1.57.9,2.5,2.78,2.5s2.74-.89,2.74-2.71h5.28c0,4.4-2.99,7.19-8.15,7.19s-8.19-2.75-8.19-7.59v-6.22c0-4.89,2.91-7.59,8.19-7.59s8.15,2.71,8.15,7.59ZM315.08,64.33v-1.29c0-1.62-.94-2.46-2.7-2.46s-2.7.85-2.7,2.46v1.29h5.4Z"/>
      <path class="cls-2" d="M324.53,48.34h5.53v5.45h-5.53v-5.45ZM324.53,56.54h5.53v20.6h-5.53v-20.6Z"/>
      <path class="cls-2" d="M350.89,63v14.14h-5.53v-13.25c0-2.18-.61-3.07-2.37-3.07s-2.7,1.13-2.7,3.64v12.68h-5.53v-20.6h4.79l.12,3.64c.74-2.58,2.7-4.04,5.53-4.04,3.72,0,5.69,2.34,5.69,6.87Z"/>
      <path class="cls-2" d="M355.38,48.34h5.53v5.45h-5.53v-5.45ZM355.38,56.54h5.53v20.6h-5.53v-20.6Z"/>
      <path class="cls-2" d="M381.29,56.54v19.87c0,4.32-1.76,7.39-8.19,7.39-4.99,0-7.65-1.94-7.9-5.9h5.32c.12,1.05.94,1.45,2.5,1.45,2.01,0,2.74-.77,2.74-2.95v-3.03c-.98,1.7-2.7,2.63-4.99,2.63-3.72,0-5.73-2.34-5.73-6.87v-6.14c0-4.52,2.01-6.87,5.73-6.87,2.86,0,4.83,1.49,5.61,4.04l.12-3.64h4.79ZM375.76,67.69v-3.23c0-2.5-.94-3.64-2.78-3.64s-2.42.89-2.42,3.07v4.36c0,2.18.66,3.07,2.42,3.07s2.78-1.13,2.78-3.64Z"/>
      <path class="cls-2" d="M401.92,56.54v20.6h-4.79l-.12-3.64c-.74,2.58-2.7,4.04-5.53,4.04-3.72,0-5.69-2.34-5.69-6.87v-14.14h5.53v13.25c0,2.18.61,3.07,2.37,3.07s2.7-1.13,2.7-3.64v-12.68h5.53Z"/>
      <path class="cls-2" d="M422.75,63v14.14h-5.53v-13.25c0-2.18-.61-3.07-2.37-3.07s-2.7,1.13-2.7,3.64v12.68h-5.53v-20.6h4.79l.12,3.64c.74-2.58,2.7-4.04,5.53-4.04,3.72,0,5.69,2.34,5.69,6.87Z"/>
      <path class="cls-2" d="M442.92,56.54v19.87c0,4.32-1.76,7.39-8.19,7.39-4.99,0-7.65-1.94-7.9-5.9h5.32c.12,1.05.94,1.45,2.5,1.45,2.01,0,2.74-.77,2.74-2.95v-3.03c-.98,1.7-2.7,2.63-4.99,2.63-3.72,0-5.73-2.34-5.73-6.87v-6.14c0-4.52,2.01-6.87,5.73-6.87,2.86,0,4.83,1.49,5.61,4.04l.12-3.64h4.79ZM437.4,67.69v-3.23c0-2.5-.94-3.64-2.78-3.64s-2.42.89-2.42,3.07v4.36c0,2.18.66,3.07,2.42,3.07s2.78-1.13,2.78-3.64Z"/>
      <path class="cls-2" d="M446.69,71.04v-.6h5.28v.65c0,1.37.86,2.18,2.46,2.18,1.35,0,2.37-.6,2.37-2.02s-1.64-1.82-3.89-2.3c-2.95-.65-5.94-1.98-5.94-6.34,0-3.92,2.54-6.46,7.45-6.46,4.5,0,7.41,2.38,7.41,6.1v.49h-5.2v-.49c0-1.13-.66-1.82-2.17-1.82-1.11,0-2.13.52-2.13,1.82,0,1.5,1.51,1.9,4.05,2.5,2.95.73,5.89,1.86,5.89,6.02s-2.58,6.79-7.61,6.79-7.98-2.5-7.98-6.5Z"/>
      <path class="cls-2" d="M213.05,118.25v-13.49c0-5.05,2.86-7.84,7.94-7.84s8.06,2.79,8.06,7.84v1.33h-2.5v-1.53c0-3.64-1.96-5.37-5.44-5.37s-5.44,1.74-5.44,5.37v13.81c0,3.64,1.96,5.37,5.44,5.37s5.44-1.74,5.44-5.37v-5.57h-4.99v-2.38h7.49v7.84c0,5.01-2.86,7.75-7.94,7.75s-8.06-2.75-8.06-7.75Z"/>
      <path class="cls-2" d="M260.73,111.74v13.85h-2.54v-13.49c0-3.15-1.23-4.81-3.85-4.81-3.15,0-5.03,2.3-5.03,6.22v12.08h-2.54v-13.49c0-3.23-1.27-4.81-3.85-4.81-3.23,0-5.08,2.34-5.08,6.22v12.08h-2.54v-20.07h2.17l.08,3.6c.98-2.58,3.11-4,6.06-4s4.71,1.33,5.4,3.96c.98-2.54,3.11-3.96,6.06-3.96,3.72,0,5.65,2.3,5.65,6.62Z"/>
      <path class="cls-2" d="M281.97,111.74v7.67c0,4.32-2,6.58-6.02,6.58-3.11,0-5.36-1.37-6.43-3.92l-.41,3.51h-1.84v-28.27h2.54v11.11c1.15-2.14,3.27-3.31,6.14-3.31,4.01,0,6.02,2.26,6.02,6.62ZM279.43,112.11c0-3.23-1.31-4.81-4.13-4.81-3.52,0-5.48,2.3-5.48,6.22v4.08c0,3.92,1.97,6.22,5.48,6.22,2.82,0,4.13-1.58,4.13-4.81v-6.91Z"/>
      <path class="cls-2" d="M288.39,97.32h2.62v12.8h10.76v-12.8h2.66v28.27h-2.66v-13.21h-10.76v13.21h-2.62v-28.27Z"/>
    </g>
    <g>
      <path class="cls-2" d="M112.79,45h25.71v27h-2.68c-.52,0-1.03-.21-1.4-.58l-23.03-23.03c-1.25-1.25-.37-3.39,1.4-3.39Z"/>
      <rect class="cls-2" x="140.5" y="45" width="7" height="27"/>
      <path class="cls-2" d="M189,1.99v15.01h-27V1.99C162,.89,162.89,0,163.99,0h23.02C188.11,0,189,.89,189,1.99Z"/>
      <rect class="cls-2" x="162" y="19" width="27" height="7"/>
      <polygon class="cls-2" points="162 28 189 28 189 98 162 98 162 72 149.5 72 149.5 45 162 45 162 28"/>
      <rect class="cls-2" x="162" y="100" width="27" height="7"/>
      <path class="cls-2" d="M162,109h27v14.73c0,1.1-.89,1.99-1.99,1.99h-23.02c-1.1,0-1.99-.89-1.99-1.99v-14.73Z"/>
      <path class="cls-1" d="M125.42,71.42c.37.37.58.88.58,1.4v16.9c0,21.52-14.48,36.28-36,36.28l-74,.28c-8.89,0-14.95-7.3-14.95-15.01,0-3.25,1.07-9.39,3.45-12.27L47.35,32.01c1.65-1.99.24-5-2.35-5.01l-43.02-.06c-1.1,0-1.98-.89-1.98-1.99V1.99C0,.89.89,0,1.99,0h72.7C87.14,0,94.12,14.34,86.43,24.14l-43.84,69.92c-1.57,2.01-.14,4.94,2.41,4.94l45-.28c7.45,0,9-.35,9-7.8v-41.13c0-1.77,2.14-2.65,3.39-1.4l23.03,23.03Z"/>
    </g>
    <rect class="cls-2" x="99" y="0" width="27" height="40.5" rx="1.99" ry="1.99"/>
    <path class="cls-2" d="M147.5,41.48v33.32c0,.38-.32.7-.7.7h-5.6c-.38,0-.7-.32-.7-.7v-33.32c0-.39.32-.7.7-.7h5.6c.38,0,.7.31.7.7Z"/>
    <rect class="cls-2" x="157.78" y="19" width="34.72" height="7" rx=".7" ry=".7"/>
    <rect class="cls-2" x="157.78" y="100" width="34.72" height="7" rx=".7" ry=".7"/>
  </g>
</svg>